<svg xmlns="http://www.w3.org/2000/svg" width="111" height="111" viewBox="0 0 111 111">
  <g id="Group_3256" data-name="Group 3256" transform="translate(-521.662 -3709.457)">
    <circle id="Ellipse_109" data-name="Ellipse 109" cx="55.5" cy="55.5" r="55.5" transform="translate(521.662 3709.457)" fill="#fff" opacity="0.18"/>
    <path id="Path_2729" data-name="Path 2729" d="M28,0A28,28,0,0,1,56,28v1A28,28,0,0,1,0,29V28A28,28,0,0,1,28,0Z" transform="translate(548.662 3735.457)" fill="#abd037"/>
    <g id="lotus-flower" transform="translate(556.1 3739.588)">
      <path id="Path_991" data-name="Path 991" d="M39.634,28.363a26.71,26.71,0,0,0-5.928-.525,19.294,19.294,0,0,0,.69-10.4.635.635,0,0,0-.778-.508,22.443,22.443,0,0,0-6.067,2.732A19.849,19.849,0,0,0,21.5,11.145a.635.635,0,0,0-.841.057,22.207,22.207,0,0,0-5.625,8.769,22.516,22.516,0,0,0-6.529-3.045.635.635,0,0,0-.778.508,19.319,19.319,0,0,0,.69,10.4,26.71,26.71,0,0,0-5.928.525.636.636,0,0,0-.445.854c2.761,6.914,8.144,8.507,12.517,8.507a20.939,20.939,0,0,0,6.5-1.078,20.935,20.935,0,0,0,6.5,1.08c4.373,0,9.756-1.594,12.517-8.507a.637.637,0,0,0-.445-.855ZM32.3,27.906a16.734,16.734,0,0,0-6.668,1.843.624.624,0,0,0-.294.165h0a10.956,10.956,0,0,0-3.3,2.929,15.168,15.168,0,0,0-.323-3.495,13.81,13.81,0,0,1,5.846-8.17,22.092,22.092,0,0,1,5.7-2.819A17.084,17.084,0,0,1,32.3,27.906Zm-11.14-15.4a18.512,18.512,0,0,1,5.3,7.909,15.367,15.367,0,0,0-5.4,6.789,15.143,15.143,0,0,0-4.94-6.443A20.111,20.111,0,0,1,21.157,12.509ZM8.868,18.355A21.882,21.882,0,0,1,15.014,21.5h0a13.614,13.614,0,0,1,5.4,7.844,15.136,15.136,0,0,0-.324,3.495C17.511,29.382,13.42,28.191,9.826,27.9a17.059,17.059,0,0,1-.958-9.546Zm4.819,18.1a11.138,11.138,0,0,1-10.159-7c2.88-.491,13.268-1.657,16.693,6.13a19.222,19.222,0,0,1-6.534.871Zm14.749,0a19.259,19.259,0,0,1-6.534-.871c3.425-7.785,13.812-6.618,16.7-6.128a11.151,11.151,0,0,1-10.163,7Z" transform="translate(0)" fill="#fff"/>
      <rect id="Rectangle_229" data-name="Rectangle 229" width="1.271" height="1.271" transform="translate(20.427 15.638)" fill="#fff"/>
      <rect id="Rectangle_230" data-name="Rectangle 230" width="1.271" height="1.271" transform="translate(20.427 18.179)" fill="#fff"/>
      <rect id="Rectangle_231" data-name="Rectangle 231" width="1.271" height="1.271" transform="translate(20.427 20.721)" fill="#fff"/>
      <path id="Path_992" data-name="Path 992" d="M14,26.292a9.682,9.682,0,0,0,1.378,4.8l1.057-.705a8.514,8.514,0,0,1-1.164-4.1Z" transform="translate(-4.375 -5.571)" fill="#fff"/>
      <path id="Path_993" data-name="Path 993" d="M48.6,26.292H47.332a8.457,8.457,0,0,1-1.164,4.1l1.057.705a9.682,9.682,0,0,0,1.378-4.8Z" transform="translate(-16.104 -5.571)" fill="#fff"/>
    </g>
  </g>
</svg>
