<svg xmlns="http://www.w3.org/2000/svg" width="111" height="111" viewBox="0 0 111 111">
  <g id="Group_3253" data-name="Group 3253" transform="translate(-33 -518.766)">
    <circle id="Ellipse_111" data-name="Ellipse 111" cx="55.5" cy="55.5" r="55.5" transform="translate(33 518.766)" fill="#fff" opacity="0.18"/>
    <path id="Path_2731" data-name="Path 2731" d="M28,0A28,28,0,0,1,56,28v1A28,28,0,0,1,0,29V28A28,28,0,0,1,28,0Z" transform="translate(60.5 545.125)" fill="#922350"/>
    <g id="mountain-peak_1_" data-name="mountain-peak (1)" transform="translate(73.5 559.125)">
      <path id="Path_982" data-name="Path 982" d="M480,476.137h.937v.937H480Zm0,0" transform="translate(-451.885 -448.248)" fill="#fff"/>
      <path id="Path_983" data-name="Path 983" d="M0,476.137H.937v.937H0Zm0,0" transform="translate(0 -448.248)" fill="#fff"/>
      <path id="Path_984" data-name="Path 984" d="M23.863,21.485a4.438,4.438,0,0,0-3.13-2.84l-2.159-7.4a4.24,4.24,0,0,0-3.58-3.006V6.2l7.374-2.634L14.057,0V8.238a4.174,4.174,0,0,0-.826.178,3.311,3.311,0,0,0-2.84-.563A4.215,4.215,0,0,0,2.374,10.12a2.81,2.81,0,0,0,.437,5.586H9.176l-.273.937a4.239,4.239,0,0,0-4.048,3.036L2.46,27.889H1.405v.937H27.178v-.937H26.1ZM14.995,1.422,19.8,3.482,14.995,5.2Zm.75,22.194a1.487,1.487,0,0,0,1.121.525c.992,0,1.454-.923,1.825-1.665.356-.713.6-1.147.986-1.147s.631.433.987,1.147c.372.742.833,1.665,1.826,1.665a1.49,1.49,0,0,0,1.125-.527l1.5,4.275H14.25Zm7.234-1.822.255.73c-.275.489-.486.679-.743.679-.386,0-.631-.434-.987-1.147-.371-.742-.833-1.665-1.826-1.665s-1.455.923-1.825,1.665c-.356.713-.6,1.147-.986,1.147-.257,0-.466-.189-.74-.677l.256-.733a3.495,3.495,0,0,1,6.6,0Zm-3.3-3.277A4.437,4.437,0,0,0,15.5,21.485l-1.1,3.147-1.445-4.953a4.243,4.243,0,0,0-3.1-2.925l.735-2.519a1.486,1.486,0,0,0,1.13.534c.992,0,1.454-.923,1.825-1.665.356-.713.6-1.147.986-1.147s.631.433.987,1.147c.372.742.833,1.665,1.826,1.665a1.492,1.492,0,0,0,1.133-.536l1.25,4.287-.039,0Zm-2.005-7.01.453,1.555c-.3.561-.52.769-.792.769-.386,0-.631-.434-.987-1.147-.371-.742-.833-1.665-1.826-1.665s-1.455.923-1.825,1.665c-.356.713-.6,1.147-.986,1.147-.271,0-.487-.207-.789-.766l.454-1.558a3.28,3.28,0,0,1,6.3,0ZM2.811,14.768a1.874,1.874,0,1,1,1.874-1.874h.937a2.815,2.815,0,0,0-2.3-2.762A3.277,3.277,0,0,1,9.675,8.59l.161.49.472-.207a2.371,2.371,0,0,1,1.919.025,4.217,4.217,0,0,0-1.749,2.346L9.449,14.768ZM8.9,17.58a3.3,3.3,0,0,1,3.149,2.362l.271.93c-.26.4-.447.457-.61.457-.386,0-.631-.434-.987-1.147-.371-.742-.833-1.665-1.826-1.665s-1.455.923-1.825,1.665c-.356.713-.6,1.147-.986,1.147-.162,0-.348-.062-.607-.454l.272-.933A3.3,3.3,0,0,1,8.9,17.58Zm-3.73,4.352a1.406,1.406,0,0,0,.915.334c.992,0,1.454-.923,1.825-1.665.356-.713.6-1.147.986-1.147s.631.433.987,1.147c.372.742.833,1.665,1.826,1.665a1.427,1.427,0,0,0,.918-.339l1.233,4.226-.608,1.736H3.436Zm0,0" fill="#fff"/>
    </g>
  </g>
</svg>
