<svg xmlns="http://www.w3.org/2000/svg" width="111" height="111" viewBox="0 0 111 111">
  <g id="Group_3255" data-name="Group 3255" transform="translate(-33 -3709.457)">
    <circle id="Ellipse_108" data-name="Ellipse 108" cx="55.5" cy="55.5" r="55.5" transform="translate(33 3709.457)" fill="#fff" opacity="0.18"/>
    <path id="Path_2728" data-name="Path 2728" d="M28,0A28,28,0,0,1,56,28v1A28,28,0,0,1,0,29V28A28,28,0,0,1,28,0Z" transform="translate(60 3735.457)" fill="#00abe5"/>
    <g id="sunset" transform="translate(75.717 3749.118)">
      <path id="Path_985" data-name="Path 985" d="M329.4,276.1a4.946,4.946,0,1,0,4.946-4.945A4.946,4.946,0,0,0,329.4,276.1Zm4.946-3.956a3.956,3.956,0,1,1-3.956,3.956A3.956,3.956,0,0,1,334.344,272.145Zm0,0" transform="translate(-312.404 -257.306)" fill="#fff"/>
      <path id="Path_986" data-name="Path 986" d="M370.9,561.637h5.652v.989H370.9Zm0,0" transform="translate(-351.785 -532.95)" fill="#fff"/>
      <path id="Path_987" data-name="Path 987" d="M329.4,522.9h9.891v.989H329.4Zm0,0" transform="translate(-312.404 -496.194)" fill="#fff"/>
      <path id="Path_988" data-name="Path 988" d="M116.379,522.9h.989v.989h-.989Zm0,0" transform="translate(-110.266 -496.194)" fill="#fff"/>
      <path id="Path_989" data-name="Path 989" d="M58.285,542.27h.989v.989h-.989Zm0,0" transform="translate(-55.139 -514.573)" fill="#fff"/>
      <path id="Path_990" data-name="Path 990" d="M6.163,23.925A37.457,37.457,0,0,0,10.921,9.286l4.6,4.572a.494.494,0,0,0,.346.144.467.467,0,0,0,.08-.006.494.494,0,0,0,.363-.267,4.828,4.828,0,0,0-.906-5.58l-.4-.4h3.479a.495.495,0,0,0,.469-.651A4.829,4.829,0,0,0,14.36,3.788h-.643L16.187,1.3a.495.495,0,0,0-.129-.791,4.83,4.83,0,0,0-5.583.906L10,1.89a4.837,4.837,0,0,0-.429.495,4.752,4.752,0,0,0-.425-.495l-.472-.472A4.827,4.827,0,0,0,3.1.512a.494.494,0,0,0-.129.791L5.44,3.788H4.791A4.828,4.828,0,0,0,.2,7.093a.495.495,0,0,0,.469.651H4.149l-.4.4a4.828,4.828,0,0,0-.906,5.58A.494.494,0,0,0,3.2,14a.469.469,0,0,0,.08.006.494.494,0,0,0,.349-.144L7.912,9.6a26.806,26.806,0,0,1-5.171,13.07A18.455,18.455,0,0,0,.723,22.26l-.309-.031-.1.985.288.028c.495.071.986.171,1.475.284-.1.124-.2.25-.3.373l.759.634A27.844,27.844,0,0,0,9.006,8.513l.569-.566L10,8.371A36.16,36.16,0,0,1,3.73,25.928l.81.567c.389-.555.76-1.131,1.119-1.718a17.541,17.541,0,0,1,5.984,4.688l.765-.627a18.473,18.473,0,0,0-3.284-3.119H29.852V24.73H7.659c-.485-.293-.985-.558-1.5-.8Zm9.522-11.3-5.225-5.2a3.815,3.815,0,0,1,3.776.945l.472.472a3.84,3.84,0,0,1,.978,3.778Zm2.038-5.871H13.628a4.823,4.823,0,0,0-3.063-.366,3.835,3.835,0,0,1,3.126-1.613h.668a3.84,3.84,0,0,1,3.364,1.978ZM10.7,2.589l.472-.472a3.843,3.843,0,0,1,3.78-.978L12.021,4.088A4.824,4.824,0,0,0,9.686,5.921,3.743,3.743,0,0,1,10.7,2.589ZM7.976,2.117l.472.472a3.753,3.753,0,0,1,.569.749,4.705,4.705,0,0,0-.378,1.644A4.824,4.824,0,0,0,7.13,4.088L4.2,1.139a3.841,3.841,0,0,1,3.779.978ZM4.789,4.777h.668A3.836,3.836,0,0,1,8.586,6.389a4.825,4.825,0,0,0-3.062.366h-4.1A3.84,3.84,0,0,1,4.791,4.777Zm-1.323,7.85a3.84,3.84,0,0,1,.978-3.778l.472-.472A3.78,3.78,0,0,1,7.6,7.272a3.912,3.912,0,0,1,1.1.157Zm0,0" fill="#fff"/>
    </g>
  </g>
</svg>
