<svg xmlns="http://www.w3.org/2000/svg" width="111" height="111" viewBox="0 0 111 111">
  <g id="Group_3254" data-name="Group 3254" transform="translate(-1491 -2837.641)">
    <circle id="Ellipse_112" data-name="Ellipse 112" cx="55.5" cy="55.5" r="55.5" transform="translate(1491 2837.641)" fill="#fff" opacity="0.18"/>
    <path id="Path_2732" data-name="Path 2732" d="M28,0A28,28,0,0,1,56,28v1A28,28,0,0,1,0,29V28A28,28,0,0,1,28,0Z" transform="translate(1518 2863.641)" fill="#f05622"/>
    <g id="masks" transform="translate(1530.332 2877.554)">
      <g id="Group_602" data-name="Group 602" transform="translate(0 0.001)">
        <g id="Group_601" data-name="Group 601" transform="translate(0 0)">
          <path id="Path_971" data-name="Path 971" d="M31.158,4.914C29.2,2.959,25.6,1.486,23.108.818A24.181,24.181,0,0,0,17.125,0,11.91,11.91,0,0,0,14.088.34a.612.612,0,0,0-.433.433c-.18.671-.334,1.371-.462,2.09a.6.6,0,0,0-.011.064,29.431,29.431,0,0,0-.25,8.579,24.708,24.708,0,0,0-4.7.775c-2.492.668-6.1,2.141-8.05,4.1a.612.612,0,0,0-.158.591c.2.729.434,1.473.708,2.218v0A29.371,29.371,0,0,0,4.6,26.412c1.68,2.247,4.326,4.926,7.388,4.926a5.032,5.032,0,0,0,1.3-.171c1.869-.5,3.337-2.062,4.245-4.514a20.415,20.415,0,0,0,1.076-6.831,5.035,5.035,0,0,0,.738.055c3.062,0,5.708-2.679,7.388-4.927a29.28,29.28,0,0,0,4.579-9.445A.612.612,0,0,0,31.158,4.914ZM12.973,29.984a3.81,3.81,0,0,1-.986.13c-1.994,0-4.27-1.575-6.408-4.435a27.978,27.978,0,0,1-3.551-6.515c.33-.256.857-.654,1.4-1.023a.612.612,0,1,0-.685-1.015c-.424.286-.831.584-1.153.828Q1.436,17.474,1.3,17a19.229,19.229,0,0,1,7.246-3.537,23.412,23.412,0,0,1,4.58-.743,15.1,15.1,0,0,0,.789,2.766l0,.011q.047.118.1.233l.005.013a9.957,9.957,0,0,0,.551,1.1l.008.014,0,0,.034.059c.024.041.05.08.075.12l.048.077q.052.082.1.16l.052.076c.036.053.073.1.11.156l.047.063c.04.054.08.108.121.16l.014.017c.081.1.163.2.247.295a1.96,1.96,0,0,1-3.233-.239.612.612,0,0,0-1.06.612,3.184,3.184,0,0,0,5.194.459,5.181,5.181,0,0,0,.622.394l.027.015c.056.03.113.058.17.086l.048.023q.083.039.166.075l.02.009C17.41,24.056,16.267,29.1,12.973,29.984ZM25.757,14.217c-2.138,2.86-4.414,4.435-6.408,4.435a3.81,3.81,0,0,1-.985-.13c-.059-.016-.118-.034-.175-.052l-.005,0c-2.647-.851-3.607-4.428-3.944-6.484,0,0,0-.009,0-.013l-.018-.11a27.548,27.548,0,0,1,.1-8.319c.413-.057,1.069-.138,1.728-.184a.612.612,0,0,0-.086-1.221c-.508.035-1.007.09-1.407.139q.09-.424.193-.836a11.562,11.562,0,0,1,2.377-.215A22.9,22.9,0,0,1,22.791,2a19.234,19.234,0,0,1,7.246,3.537A28.073,28.073,0,0,1,25.757,14.217Z" transform="translate(0 -0.001)" fill="#fff"/>
        </g>
      </g>
      <g id="Group_604" data-name="Group 604" transform="translate(21.705 7.897)">
        <g id="Group_603" data-name="Group 603">
          <path id="Path_972" data-name="Path 972" d="M360.233,130.6a3.185,3.185,0,0,0-5.516,0,.612.612,0,1,0,1.06.612,1.961,1.961,0,0,1,3.4,0,.612.612,0,1,0,1.06-.612Z" transform="translate(-354.634 -129.004)" fill="#fff"/>
        </g>
      </g>
      <g id="Group_606" data-name="Group 606" transform="translate(14.726 5.674)">
        <g id="Group_605" data-name="Group 605">
          <path id="Path_973" data-name="Path 973" d="M244.09,93.112a3.194,3.194,0,0,0-3.185,0,.612.612,0,1,0,.612,1.06,1.961,1.961,0,0,1,2.941,1.7.612.612,0,1,0,1.224,0A3.194,3.194,0,0,0,244.09,93.112Z" transform="translate(-240.599 -92.686)" fill="#fff"/>
        </g>
      </g>
      <g id="Group_608" data-name="Group 608" transform="translate(16.88 12.556)">
        <g id="Group_607" data-name="Group 607">
          <path id="Path_974" data-name="Path 974" d="M281.138,206.465a.612.612,0,0,0-.866,0,1.961,1.961,0,0,1-3.28-.879.612.612,0,0,0-1.182.317,3.186,3.186,0,0,0,5.328,1.428A.612.612,0,0,0,281.138,206.465Z" transform="translate(-275.789 -205.132)" fill="#fff"/>
        </g>
      </g>
      <g id="Group_610" data-name="Group 610" transform="translate(3.693 18.439)">
        <g id="Group_609" data-name="Group 609">
          <path id="Path_975" data-name="Path 975" d="M64.8,301.258h0a.612.612,0,0,0-.612.612,1.961,1.961,0,0,1-2.941,1.7.612.612,0,1,0-.612,1.06,3.185,3.185,0,0,0,4.777-2.758A.612.612,0,0,0,64.8,301.258Z" transform="translate(-60.332 -301.258)" fill="#fff"/>
        </g>
      </g>
      <g id="Group_612" data-name="Group 612" transform="translate(9.262 24.507)">
        <g id="Group_611" data-name="Group 611">
          <path id="Path_976" data-name="Path 976" d="M156.668,401.328a3.185,3.185,0,0,0-5.328,1.428.612.612,0,1,0,1.182.317,1.961,1.961,0,0,1,3.28-.879.612.612,0,1,0,.866-.866Z" transform="translate(-151.319 -400.396)" fill="#fff"/>
        </g>
      </g>
      <g id="Group_614" data-name="Group 614" transform="translate(17.124 2.145)">
        <g id="Group_613" data-name="Group 613">
          <path id="Path_977" data-name="Path 977" d="M280.527,35.039l-.046-.007a.612.612,0,1,0-.177,1.211l.029,0a.612.612,0,1,0,.194-1.209Z" transform="translate(-279.78 -35.026)" fill="#fff"/>
        </g>
      </g>
      <g id="Group_616" data-name="Group 616" transform="translate(3.982 16.149)">
        <g id="Group_615" data-name="Group 615">
          <path id="Path_978" data-name="Path 978" d="M66.282,264.233a.612.612,0,0,0-.789-.356l-.046.018a.612.612,0,1,0,.454,1.137l.025-.01A.612.612,0,0,0,66.282,264.233Z" transform="translate(-65.062 -263.837)" fill="#fff"/>
        </g>
      </g>
    </g>
  </g>
</svg>
