<svg xmlns="http://www.w3.org/2000/svg" width="111" height="111" viewBox="0 0 111 111">
  <g id="Group_3258" data-name="Group 3258" transform="translate(-1010.324 -4143.195)">
    <circle id="Ellipse_113" data-name="Ellipse 113" cx="55.5" cy="55.5" r="55.5" transform="translate(1010.324 4143.195)" fill="#fff" opacity="0.18"/>
    <path id="Path_2733" data-name="Path 2733" d="M28,0A28,28,0,0,1,56,28v1A28,28,0,0,1,0,29V28A28,28,0,0,1,28,0Z" transform="translate(1037.324 4169.195)" fill="#da1f26"/>
    <g id="shopping" transform="translate(1036.316 4177.031)">
      <path id="Path_979" data-name="Path 979" d="M368.415,76.112a.415.415,0,0,0,.051,0,2.174,2.174,0,0,0,2.006-2.077,1.056,1.056,0,0,1,.588-.988,2.032,2.032,0,0,1,.687-.226.411.411,0,0,0-.081-.819,2.112,2.112,0,0,0-2.017,2.033,1.1,1.1,0,0,1-.6,1.014,2.092,2.092,0,0,1-.689.246.411.411,0,0,0,.05.82Z" transform="translate(-333.904 -60.715)" fill="#fff" stroke="#fff" stroke-width="0.5"/>
      <path id="Path_980" data-name="Path 980" d="M16,18.3a.407.407,0,0,0,.01.066l1.22,5.293-.517,9.406a.411.411,0,0,0,.411.434H39.558a.411.411,0,0,0,.411-.434l-.517-9.406,1.22-5.293a.406.406,0,0,0,.01-.066,1.227,1.227,0,0,0-.664-1.176,1.324,1.324,0,0,0-.156-.069V11.694A3.7,3.7,0,0,0,32.77,10.2a3.7,3.7,0,0,0-3.707-.127,3.7,3.7,0,0,0-6.3,1.279,2.535,2.535,0,0,0-.6-.07,2.49,2.49,0,0,0-.808.13l.791-2.9a.411.411,0,0,0-.4-.52H19.7a.411.411,0,0,0-.4.3l-.389,1.425-.052-.19a.411.411,0,0,0-.4-.3H16.406a.411.411,0,0,0-.4.519l1.175,4.31a6.49,6.49,0,0,0-.3,2.983,1.306,1.306,0,0,0-.221.09A1.227,1.227,0,0,0,16,18.3Zm17.28-6.61a2.88,2.88,0,0,1,5.761,0v5.349a1.279,1.279,0,0,0-.391.211.44.44,0,0,1-.58-.031l-.532-.524a1.267,1.267,0,0,0-1.771,0l-.469.462a.44.44,0,0,1-.616,0l-.469-.462a1.258,1.258,0,0,0-.934-.358Zm-7-2.057A2.888,2.888,0,0,1,28.63,10.85a.411.411,0,0,0,.566.1,2.881,2.881,0,0,1,3.32.068,3.7,3.7,0,0,0-.062.673v2.879a4.114,4.114,0,0,0-5.118.146,6.938,6.938,0,0,0-.323-1.033,1.843,1.843,0,0,0-1.279-1.271,1.8,1.8,0,0,0-1.293.3,2.862,2.862,0,0,0-.918-1.034,2.885,2.885,0,0,1,2.757-2.048Zm6.172,6.054v1l-.014.012-.469.462a.44.44,0,0,1-.616,0l-.469-.462a1.267,1.267,0,0,0-1.771,0l-.469.462a.44.44,0,0,1-.616,0l-.469-.462a1.247,1.247,0,0,0-.521-.307,3.291,3.291,0,0,1,5.412-.7ZM20.012,8.813h1.2l-.9,3.3a3.045,3.045,0,0,0-.425.605c-.06-.038-.124-.075-.192-.11l-.361-1.325Zm-.24,4.851a.411.411,0,0,0,.69-.181,1.743,1.743,0,0,1,3.408,0,.411.411,0,0,0,.69.181,1.389,1.389,0,0,1,1.013-.442c.261.052.489.312.676.774a6.3,6.3,0,0,1,.389,1.475,4.1,4.1,0,0,0-.526,1,1.246,1.246,0,0,0-.322.229l-.469.462a.44.44,0,0,1-.434.107,4.609,4.609,0,0,0-.243-2.463.411.411,0,1,0-.74.36,3.484,3.484,0,0,1,.211,1.43,1.267,1.267,0,0,0-1.648.1L22,17.16a.44.44,0,0,1-.616,0l-.469-.462a1.251,1.251,0,0,0-.659-.34,3.293,3.293,0,0,1,.224-1.191.411.411,0,1,0-.737-.365,4.091,4.091,0,0,0-.312,1.687,1.247,1.247,0,0,0-.286.21l-.532.523a.44.44,0,0,1-.58.031,1.285,1.285,0,0,0-.306-.179A5.613,5.613,0,0,1,18.083,14c.187-.46.414-.721.675-.773A1.381,1.381,0,0,1,19.773,13.664Zm-2.828-3.616h1.2l.639,2.343a1.388,1.388,0,0,0-.189.024,1.474,1.474,0,0,0-.861.543Zm.1,7.809a.435.435,0,0,1,.478.043,1.264,1.264,0,0,0,1.667-.091l.532-.524a.44.44,0,0,1,.616,0l.469.462a1.267,1.267,0,0,0,1.771,0l.469-.462a.44.44,0,0,1,.616,0l.469.462a1.267,1.267,0,0,0,1.771,0l.469-.462a.44.44,0,0,1,.616,0l.469.462a1.267,1.267,0,0,0,1.771,0l.469-.462a.44.44,0,0,1,.616,0l.469.462a1.267,1.267,0,0,0,1.771,0l.469-.462a.44.44,0,0,1,.616,0l.469.462a1.267,1.267,0,0,0,1.771,0l.469-.462a.44.44,0,0,1,.616,0l.532.524a1.264,1.264,0,0,0,1.667.091.435.435,0,0,1,.478-.043.414.414,0,0,1,.227.366l-1.224,5.311a.413.413,0,0,0-.01.115l.5,9.03H17.555l.5-9.03a.413.413,0,0,0-.01-.115l-1.224-5.311a.414.414,0,0,1,.227-.366Z" transform="translate(0)" fill="#fff" stroke="#fff" stroke-width="0.5"/>
      <path id="Path_981" data-name="Path 981" d="M184.411,251.292H191a.411.411,0,0,0,.411-.411v-2.469A.411.411,0,0,0,191,248h-6.584a.411.411,0,0,0-.411.411v2.469A.411.411,0,0,0,184.411,251.292Zm.411-2.469h5.761v1.646h-5.761Z" transform="translate(-159.364 -227.665)" fill="#fff" stroke="#fff" stroke-width="0.5"/>
    </g>
  </g>
</svg>
