<svg xmlns="http://www.w3.org/2000/svg" width="111" height="111" viewBox="0 0 111 111">
  <g id="Group_3252" data-name="Group 3252" transform="translate(-33 -3006)">
    <circle id="Ellipse_87" data-name="Ellipse 87" cx="55.5" cy="55.5" r="55.5" transform="translate(33 3006)" fill="#fff" opacity="0.18"/>
    <rect id="Rectangle_307" data-name="Rectangle 307" width="56" height="57" rx="28" transform="translate(60 3032)" fill="#12a8b9"/>
    <path id="leaves" d="M34.565,1.448A22.9,22.9,0,0,0,25.2.49c-3.464.372-6.141,1.61-7.741,3.582a7.755,7.755,0,0,0-.9,8.163,6.865,6.865,0,0,0,.46.787,23.6,23.6,0,0,0-1.4,4.05c-.228-.278-.477-.565-.746-.856.036-.081.071-.162.1-.245A6.007,6.007,0,0,0,13.695,9.7,8.631,8.631,0,0,0,7.5,7.48,17.5,17.5,0,0,0,.435,8.857a.71.71,0,0,0-.076,1.269A6.907,6.907,0,0,1,3.328,13.6c.148.388.263.794.385,1.224.091.321.186.653.3.981a6.337,6.337,0,0,0,.709,1.513A5.369,5.369,0,0,0,9.28,19.709a6.3,6.3,0,0,0,4.81-2.239c.4.449.74.882,1.033,1.286a13.827,13.827,0,0,1,2.159,4.188L18.66,22.6a14.278,14.278,0,0,0-1.918-4,21.9,21.9,0,0,1,1.3-4.373,8.041,8.041,0,0,0,5.368,2.153h.136a6.946,6.946,0,0,0,6.266-3.611,8.148,8.148,0,0,0,.731-2.022c.1-.439.188-.885.27-1.316.11-.585.214-1.138.365-1.676a9.362,9.362,0,0,1,3.582-5.051.71.71,0,0,0-.191-1.258ZM13.766,15.11a22.728,22.728,0,0,0-7.555-4.576l-.5,1.33A21.173,21.173,0,0,1,13.1,16.436a4.788,4.788,0,0,1-3.3,1.825,3.988,3.988,0,0,1-3.9-1.73,4.979,4.979,0,0,1-.547-1.182c-.1-.3-.185-.6-.275-.916-.125-.44-.254-.9-.425-1.343A8.236,8.236,0,0,0,2.226,9.7a16.059,16.059,0,0,1,5.249-.8,7.477,7.477,0,0,1,5.2,1.791,4.643,4.643,0,0,1,1.087,4.419ZM29.807,7.372c-.168.6-.283,1.208-.394,1.8-.082.434-.159.844-.256,1.249a6.8,6.8,0,0,1-.6,1.677,5.569,5.569,0,0,1-5.128,2.864,6.555,6.555,0,0,1-4.76-2.115l.01-.019a15.942,15.942,0,0,1,3.444-4.647A12.509,12.509,0,0,1,28,5.162l-.3-1.388a13.913,13.913,0,0,0-6.54,3.355A16.99,16.99,0,0,0,17.775,11.5a6.357,6.357,0,0,1,.784-6.533c1.717-2.115,4.64-2.834,6.79-3.065a21.1,21.1,0,0,1,2.246-.119,21.563,21.563,0,0,1,5.244.648,10.661,10.661,0,0,0-3.032,4.941Zm0,0" transform="translate(70.967 3049.93)" fill="#fff"/>
  </g>
</svg>
